HIERARCHY
ROOT hip
{
  OFFSET 0 0 0
  CHANNELS 6 Xposition Yposition Zposition Zrotation Yrotation Xrotation
  JOINT abdomen
  {
    OFFSET 0 20.6881 -0.73152
    CHANNELS 3 Zrotation Xrotation Yrotation
    JOINT chest
    {
      OFFSET 0 11.7043 -0.48768
      CHANNELS 3 Zrotation Xrotation Yrotation
      JOINT neck
      {
        OFFSET 0 22.1894 -2.19456
        CHANNELS 3 Zrotation Xrotation Yrotation
        JOINT head
        {
          OFFSET -0.24384 7.07133 1.2192
          CHANNELS 3 Zrotation Xrotation Yrotation
          JOINT leftEye
          {
            OFFSET 4.14528 8.04674 8.04672
            CHANNELS 3 Zrotation Xrotation Yrotation
            End Site
            {
              OFFSET 1 0 0
            }
          }
          JOINT rightEye
          {
            OFFSET -3.6576 8.04674 8.04672
            CHANNELS 3 Zrotation Xrotation Yrotation
            End Site
            {
              OFFSET 1 0 0
            }
          }
        }
      }
      JOINT rCollar
      {
        OFFSET -2.68224 19.2634 -4.8768
        CHANNELS 3 Zrotation Xrotation Yrotation
        JOINT rShldr
        {
          OFFSET -8.77824 -1.95073 1.46304
          CHANNELS 3 Zrotation Xrotation Yrotation
          JOINT rForeArm
          {
            OFFSET -28.1742 -1.7115 0.48768
            CHANNELS 3 Zrotation Xrotation Yrotation
            JOINT rHand
            {
              OFFSET -22.5879 0.773209 7.07136
              CHANNELS 3 Zrotation Xrotation Yrotation
              JOINT rThumb1
              {
                OFFSET -1.2192 -0.487915 3.41376
                CHANNELS 3 Zrotation Xrotation Yrotation
                JOINT rThumb2
                {
                  OFFSET -3.37035 -0.52449 3.41376
                  CHANNELS 3 Zrotation Xrotation Yrotation
                  End Site
                  {
                    OFFSET -1.78271 -1.18214 1.43049
                  }
                }
              }
              JOINT rIndex1
              {
                OFFSET -7.75947 0.938293 5.60832
                CHANNELS 3 Zrotation Xrotation Yrotation
                JOINT rIndex2
                {
                  OFFSET -2.54057 -0.884171 1.56538
                  CHANNELS 3 Zrotation Xrotation Yrotation
                  End Site
                  {
                    OFFSET -1.62519 -0.234802 1.16502
                  }
                }
              }
              JOINT rMid1
              {
                OFFSET -8.24714 1.18213 3.41376
                CHANNELS 3 Zrotation Xrotation Yrotation
                JOINT rMid2
                {
                  OFFSET -3.10165 -0.590103 1.0647
                  CHANNELS 3 Zrotation Xrotation Yrotation
                  End Site
                  {
                    OFFSET -2.48547 -0.328903 0.83742
                  }
                }
              }
              JOINT rRing1
              {
                OFFSET -8.82822 0.546677 1.51678
                CHANNELS 3 Zrotation Xrotation Yrotation
                JOINT rRing2
                {
                  OFFSET -2.60934 -0.819778 -0.0198488
                  CHANNELS 3 Zrotation Xrotation Yrotation
                  End Site
                  {
                    OFFSET -2.33842 -0.294052 0.168128
                  }
                }
              }
              JOINT rPinky1
              {
                OFFSET -8.27202 -0.0477905 -0.4584
                CHANNELS 3 Zrotation Xrotation Yrotation
                JOINT rPinky2
                {
                  OFFSET -1.82734 -0.647385 -0.700984
                  CHANNELS 3 Zrotation Xrotation Yrotation
                  End Site
                  {
                    OFFSET -1.69225 -0.51767 -0.607171
                  }
                }
              }
            }
          }
        }
      }
      JOINT lCollar
      {
        OFFSET 2.68224 19.2634 -4.8768
        CHANNELS 3 Zrotation Xrotation Yrotation
        JOINT lShldr
        {
          OFFSET 8.77824 -1.95073 1.46304
          CHANNELS 3 Zrotation Xrotation Yrotation
          JOINT lForeArm
          {
            OFFSET 28.1742 -1.7115 0.48768
            CHANNELS 3 Zrotation Xrotation Yrotation
            JOINT lHand
            {
              OFFSET 22.5879 0.773209 7.07136
              CHANNELS 3 Zrotation Xrotation Yrotation
              JOINT lThumb1
              {
                OFFSET 1.2192 -0.487915 3.41376
                CHANNELS 3 Zrotation Xrotation Yrotation
                JOINT lThumb2
                {
                  OFFSET 3.37035 -0.52449 3.41376
                  CHANNELS 3 Zrotation Xrotation Yrotation
                  End Site
                  {
                    OFFSET 1.78271 -1.18214 1.43049
                  }
                }
              }
              JOINT lIndex1
              {
                OFFSET 7.75947 0.938293 5.60832
                CHANNELS 3 Zrotation Xrotation Yrotation
                JOINT lIndex2
                {
                  OFFSET 2.54057 -0.884171 1.56538
                  CHANNELS 3 Zrotation Xrotation Yrotation
                  End Site
                  {
                    OFFSET 1.62519 -0.234802 1.16502
                  }
                }
              }
              JOINT lMid1
              {
                OFFSET 8.24714 1.18213 3.41376
                CHANNELS 3 Zrotation Xrotation Yrotation
                JOINT lMid2
                {
                  OFFSET 3.10165 -0.590103 1.0647
                  CHANNELS 3 Zrotation Xrotation Yrotation
                  End Site
                  {
                    OFFSET 2.48547 -0.328903 0.83742
                  }
                }
              }
              JOINT lRing1
              {
                OFFSET 8.82822 0.546677 1.51678
                CHANNELS 3 Zrotation Xrotation Yrotation
                JOINT lRing2
                {
                  OFFSET 2.60934 -0.819778 -0.0198488
                  CHANNELS 3 Zrotation Xrotation Yrotation
                  End Site
                  {
                    OFFSET 2.33842 -0.294052 0.168128
                  }
                }
              }
              JOINT lPinky1
              {
                OFFSET 8.27202 -0.0477905 -0.4584
                CHANNELS 3 Zrotation Xrotation Yrotation
                JOINT lPinky2
                {
                  OFFSET 1.82734 -0.647385 -0.700984
                  CHANNELS 3 Zrotation Xrotation Yrotation
                  End Site
                  {
                    OFFSET 1.69225 -0.51767 -0.607171
                  }
                }
              }
            }
          }
        }
      }
    }
  }
  JOINT rButtock
  {
    OFFSET -8.77824 4.35084 1.2192
    CHANNELS 3 Zrotation Xrotation Yrotation
    JOINT rThigh
    {
      OFFSET 0 -1.70687 -2.19456
      CHANNELS 3 Zrotation Xrotation Yrotation
      JOINT rShin
      {
        OFFSET 0 -36.8199 0.73152
        CHANNELS 3 Zrotation Xrotation Yrotation
        JOINT rFoot
        {
          OFFSET 0.73152 -45.1104 -5.12064
          CHANNELS 3 Zrotation Xrotation Yrotation
          End Site
          {
            OFFSET -1.1221 -3.69964 12.103
          }
        }
      }
    }
  }
  JOINT lButtock
  {
    OFFSET 8.77824 4.35084 1.2192
    CHANNELS 3 Zrotation Xrotation Yrotation
    JOINT lThigh
    {
      OFFSET 0 -1.70687 -2.19456
      CHANNELS 3 Zrotation Xrotation Yrotation
      JOINT lShin
      {
        OFFSET 0 -36.8199 0.73152
        CHANNELS 3 Zrotation Xrotation Yrotation
        JOINT lFoot
        {
          OFFSET -0.73152 -45.1104 -5.12064
          CHANNELS 3 Zrotation Xrotation Yrotation
          End Site
          {
            OFFSET 1.1221 -3.69964 12.103
          }
        }
      }
    }
  }
}
MOTION
Frames:	9
Frame Time:	0.00833333
61.7835 61.3106 55.6933 335.034 -78.5439 -316.472 -4.29536 38.119 -1.50531 1.76482 -5.5534 -1.11816 -11.3923 -2.69049 -0.160577 11.7952 5.61319 2.21564 -0.0 0.0 0.0 -0.0 0.0 0.0 -1.27256e-13 -1.17622e-13 -1.81888e-14 35.7531 -47.0318 39.5707 -27.9469 -30.3045 67.7348 -41.1131 -79.3919 -48.6238 -2.11298e-09 -1.23506e-10 9.16006e-10 -3.66521e-09 -2.1387e-10 1.42638e-09 -2.11298e-09 -1.2351e-10 9.16e-10 7.73091 5.47488 0.417314 -2.11298e-09 -1.23508e-10 9.16003e-10 2.90554 0.965183 0.102902 -2.11297e-09 -1.23509e-10 9.15997e-10 10.2786 0.731801 0.0259123 -2.11299e-09 -1.23507e-10 9.16006e-10 2.22167 -0.733487 -0.20892 -1.27196e-13 -1.1764e-13 -1.83876e-14 -63.1547 37.5031 -24.015 25.5696 -22.3766 -55.049 0.122186 9.91803 -1.40812 2.02222e-09 4.28831e-10 -2.99907e-10 3.49311e-09 7.43569e-10 -5.32543e-10 2.02222e-09 4.28828e-10 -2.99898e-10 -7.73091 5.47488 -0.417314 2.02222e-09 4.28826e-10 -2.99898e-10 -2.90554 0.965183 -0.102902 2.02221e-09 4.28825e-10 -2.99904e-10 -10.2786 0.731801 -0.0259123 2.02223e-09 4.28825e-10 -2.99917e-10 -2.22167 -0.733487 0.20892 -2.03217e-16 0.0 -3.88251e-19 -20.6685 -52.1716 -20.9003 -0.348616 46.537 1.64926 0.507162 -4.49606 -12.9745 2.03217e-16 0.0 3.88251e-19 23.8488 -60.631 18.5955 0.498438 51.5618 -1.74439 -3.00886 -7.12692 -9.43297
61.1109 61.6905 55.6996 335.559 -78.1264 -317.37 -4.28149 37.5914 -1.51558 1.70167 -5.58832 -1.10261 -11.4403 -2.64922 -0.361611 12.4225 5.61576 1.80102 -0.0 0.0 0.0 -0.0 0.0 0.0 -2.40093e-13 3.50682e-13 3.98482e-14 35.6038 -46.4553 38.798 -27.9235 -30.1728 67.5227 -40.6223 -79.3114 -48.1244 -2.70908e-09 -2.43423e-10 1.21424e-09 -4.70023e-09 -4.06442e-10 1.89798e-09 -2.70907e-09 -2.43426e-10 1.21424e-09 7.73091 5.47488 0.417314 -2.70908e-09 -2.43425e-10 1.21424e-09 2.90554 0.965183 0.102902 -2.70907e-09 -2.43426e-10 1.21424e-09 10.2786 0.731801 0.0259123 -2.70908e-09 -2.43424e-10 1.21425e-09 2.22167 -0.733487 -0.20892 -2.4005e-13 3.50666e-13 3.9663e-14 -63.3636 37.5368 -23.5869 25.375 -21.925 -54.3332 0.0905628 8.58293 -1.21549 2.70156e-09 5.28947e-10 -7.28021e-10 4.66377e-09 9.16462e-10 -1.27639e-09 2.70155e-09 5.28943e-10 -7.28012e-10 -7.73091 5.47488 -0.417314 2.70156e-09 5.28941e-10 -7.28011e-10 -2.90554 0.965183 -0.102902 2.70155e-09 5.2894e-10 -7.28017e-10 -10.2786 0.731801 -0.0259123 2.70157e-09 5.28941e-10 -7.28027e-10 -2.22167 -0.733487 0.20892 -2.03217e-16 0.0 -3.88251e-19 -19.9749 -51.1773 -20.0699 -0.34094 46.1522 1.62957 0.412258 -4.56781 -13.6057 2.03217e-16 0.0 3.88251e-19 22.907 -59.5923 17.5953 0.480523 50.9434 -1.69962 -3.01488 -7.22956 -9.41408
60.4426 62.0406 55.7261 336.083 -77.9435 -318.196 -4.27238 37.0247 -1.54874 1.56315 -5.61606 -1.09952 -11.4137 -2.6378 -0.564855 13.0573 5.68715 1.3526 -0.0 0.0 0.0 -0.0 0.0 0.0 -3.58109e-13 7.73778e-13 1.03427e-13 35.5943 -45.9056 38.1099 -27.8908 -29.9967 67.2451 -39.8306 -79.1771 -47.3185 -3.02791e-09 -3.90936e-10 1.45751e-09 -5.25841e-09 -6.40114e-10 2.29444e-09 -3.0279e-09 -3.90936e-10 1.4575e-09 7.73091 5.47488 0.417314 -3.02791e-09 -3.90937e-10 1.45751e-09 2.90554 0.965183 0.102902 -3.0279e-09 -3.90937e-10 1.45751e-09 10.2786 0.731801 0.0259123 -3.02792e-09 -3.90936e-10 1.45752e-09 2.22167 -0.733487 -0.20892 -3.58105e-13 7.7377e-13 1.03256e-13 -63.5271 37.5787 -23.0452 25.2029 -21.5381 -53.6957 0.0630611 7.2261 -1.02094 3.01849e-09 4.99365e-10 -1.0939e-09 5.20927e-09 8.64225e-10 -1.90741e-09 3.01849e-09 4.99361e-10 -1.09389e-09 -7.73091 5.47488 -0.417314 3.01849e-09 4.9936e-10 -1.09389e-09 -2.90554 0.965183 -0.102902 3.01848e-09 4.99359e-10 -1.09389e-09 -10.2786 0.731801 -0.0259123 3.0185e-09 4.9936e-10 -1.0939e-09 -2.22167 -0.733487 0.20892 -2.03217e-16 0.0 -3.88251e-19 -19.3746 -50.2069 -19.274 -0.332988 45.8064 1.61545 0.312832 -4.65777 -14.2537 2.03217e-16 0.0 3.88251e-19 21.9901 -58.6406 16.6422 0.468084 50.3444 -1.64301 -3.09164 -7.68125 -9.45109
59.8121 62.2291 55.7931 337.34 -77.9118 -319.61 -4.23068 36.4407 -1.57754 1.39712 -5.63362 -1.09502 -11.363 -2.62657 -0.779554 13.691 5.73886 0.877487 -0.0 0.0 0.0 -0.0 0.0 0.0 -4.39795e-13 1.05844e-12 1.52167e-13 35.5876 -45.4021 37.4512 -27.8507 -29.7875 66.9142 -38.9359 -79.0184 -46.4073 -3.12452e-09 -4.95678e-10 1.57805e-09 -5.42986e-09 -8.05204e-10 2.4959e-09 -3.12451e-09 -4.95676e-10 1.57804e-09 7.73091 5.47488 0.417314 -3.12452e-09 -4.95679e-10 1.57806e-09 2.90554 0.965183 0.102902 -3.12451e-09 -4.95679e-10 1.57805e-09 10.2786 0.731801 0.0259123 -3.12452e-09 -4.95678e-10 1.57806e-09 2.22167 -0.733487 -0.20892 -4.39835e-13 1.05844e-12 1.52009e-13 -63.6638 37.6528 -22.472 25.0425 -21.1874 -53.1043 0.0417046 5.90645 -0.832907 3.10873e-09 3.66432e-10 -1.43301e-09 5.36423e-09 6.33176e-10 -2.48998e-09 3.10873e-09 3.66429e-10 -1.43301e-09 -7.73091 5.47488 -0.417314 3.10873e-09 3.66428e-10 -1.433e-09 -2.90554 0.965183 -0.102902 3.10872e-09 3.66428e-10 -1.43301e-09 -10.2786 0.731801 -0.0259123 3.10874e-09 3.66429e-10 -1.43301e-09 -2.22167 -0.733487 0.20892 -2.03217e-16 0.0 -3.88251e-19 -18.8273 -49.2622 -18.5596 -0.326527 45.5443 1.60616 0.222955 -4.72138 -14.8732 2.03217e-16 0.0 3.88251e-19 21.122 -57.711 15.6981 0.458421 49.7655 -1.58601 -3.18133 -8.20329 -9.4876
59.172 62.4156 55.865 338.799 -77.7118 -321.287 -4.11767 35.8613 -1.57555 1.25148 -5.63802 -1.07521 -11.338 -2.58589 -1.01493 14.3118 5.68235 0.383039 -0.0 0.0 0.0 -0.0 0.0 0.0 -4.43641e-13 1.11143e-12 1.65687e-13 35.4486 -44.9619 36.768 -27.8055 -29.5564 66.5415 -38.118 -78.8668 -45.574 -3.05394e-09 -4.87286e-10 1.50813e-09 -5.3047e-09 -7.92034e-10 2.38253e-09 -3.05393e-09 -4.87282e-10 1.50812e-09 7.73091 5.47488 0.417314 -3.05394e-09 -4.87286e-10 1.50813e-09 2.90554 0.965183 0.102902 -3.05393e-09 -4.87287e-10 1.50813e-09 10.2786 0.731801 0.0259123 -3.05394e-09 -4.87286e-10 1.50814e-09 2.22167 -0.733487 -0.20892 -4.43714e-13 1.11143e-12 1.65538e-13 -63.794 37.7852 -21.9489 24.8804 -20.8417 -52.5289 0.0269711 4.68287 -0.659619 3.108e-09 1.56496e-10 -1.78082e-09 5.36328e-09 2.69632e-10 -3.08845e-09 3.10799e-09 1.56494e-10 -1.78082e-09 -7.73091 5.47488 -0.417314 3.108e-09 1.56493e-10 -1.78082e-09 -2.90554 0.965183 -0.102902 3.10799e-09 1.56493e-10 -1.78082e-09 -10.2786 0.731801 -0.0259123 3.108e-09 1.56494e-10 -1.78082e-09 -2.22167 -0.733487 0.20892 -2.03217e-16 0.0 -3.88251e-19 -18.2881 -48.3468 -17.9705 -0.32335 45.4108 1.60098 0.158806 -4.71481 -15.4185 2.03217e-16 0.0 3.88251e-19 20.3392 -56.7374 14.7371 0.448106 49.2072 -1.53949 -3.224 -8.51727 -9.46564
58.4907 62.6532 55.8559 338.176 -77.2866 -320.908 -3.86907 35.2813 -1.55304 1.14782 -5.61864 -1.03556 -11.3817 -2.50836 -1.28721 14.9333 5.47113 -0.142509 -0.0 0.0 0.0 -0.0 0.0 0.0 -3.12376e-13 8.17258e-13 1.27728e-13 35.0995 -44.6115 36.0406 -27.7494 -29.2775 66.0838 -36.7783 -78.6026 -44.2078 -2.80059e-09 -2.80283e-10 1.1263e-09 -4.84883e-09 -4.66211e-10 1.74759e-09 -2.80058e-09 -2.80279e-10 1.12629e-09 7.73091 5.47488 0.417314 -2.80059e-09 -2.80282e-10 1.1263e-09 2.90554 0.965183 0.102902 -2.80058e-09 -2.80283e-10 1.12631e-09 10.2786 0.731801 0.0259123 -2.80059e-09 -2.80283e-10 1.12631e-09 2.22167 -0.733487 -0.20892 -3.12468e-13 8.17246e-13 1.27581e-13 -63.929 38.0135 -21.5153 24.7166 -20.5004 -51.9682 0.0159401 3.54552 -0.499112 3.05496e-09 -3.1331e-10 -2.39726e-09 5.27459e-09 -5.42044e-10 -4.15254e-09 3.05495e-09 -3.13314e-10 -2.39726e-09 -7.73091 5.47488 -0.417314 3.05495e-09 -3.13315e-10 -2.39726e-09 -2.90554 0.965183 -0.102902 3.05495e-09 -3.13315e-10 -2.39726e-09 -10.2786 0.731801 -0.0259123 3.05496e-09 -3.13313e-10 -2.39725e-09 -2.22167 -0.733487 0.20892 -2.03217e-16 0.0 -3.88251e-19 -17.7 -47.4404 -17.5344 -0.323695 45.3924 1.59804 0.128483 -4.61723 -15.8718 2.03217e-16 0.0 3.88251e-19 19.6984 -55.7078 13.7646 0.435732 48.6855 -1.50807 -3.19454 -8.49247 -9.3802
57.7957 62.8753 55.807 336.55 -76.8359 -319.541 -3.52255 34.6926 -1.51892 1.0576 -5.58035 -0.983761 -11.457 -2.40961 -1.58685 15.5513 5.15993 -0.698056 -0.0 0.0 0.0 -0.0 0.0 0.0 -8.35389e-14 2.55856e-13 5.2768e-14 34.6208 -44.3339 35.293 -27.6797 -28.9497 65.5541 -35.1088 -78.2446 -42.5035 -2.3452e-09 6.55651e-11 5.03163e-10 -4.03357e-09 7.87219e-11 7.13256e-10 -2.3452e-09 6.55695e-11 5.0315e-10 7.73091 5.47488 0.417314 -2.3452e-09 6.55671e-11 5.03163e-10 2.90554 0.965183 0.102902 -2.3452e-09 6.55662e-11 5.03166e-10 10.2786 0.731801 0.0259123 -2.3452e-09 6.5566e-11 5.03171e-10 2.22167 -0.733487 -0.20892 -8.36443e-14 2.55824e-13 5.26189e-14 -64.0591 38.3151 -21.1206 24.5593 -20.1806 -51.4342 0.0072097 2.47158 -0.34771 2.8764e-09 -9.93741e-10 -3.1799e-09 4.97118e-09 -1.71723e-09 -5.50374e-09 2.87639e-09 -9.93747e-10 -3.1799e-09 -7.73091 5.47488 -0.417314 2.8764e-09 -9.93748e-10 -3.1799e-09 -2.90554 0.965183 -0.102902 2.87639e-09 -9.93749e-10 -3.1799e-09 -10.2786 0.731801 -0.0259123 2.87641e-09 -9.93745e-10 -3.1799e-09 -2.22167 -0.733487 0.20892 -2.03217e-16 0.0 -3.88251e-19 -17.0855 -46.5521 -17.209 -0.326564 45.4737 1.59815 0.124719 -4.45605 -16.2594 2.03217e-16 0.0 3.88251e-19 19.1688 -54.6542 12.7924 0.422528 48.1949 -1.48473 -3.12855 -8.29609 -9.25861
57.1274 63.1618 55.8669 337.574 -76.5639 -320.91 -3.19029 34.1129 -1.44578 0.953538 -5.54335 -0.924259 -11.4935 -2.29457 -1.88446 16.1271 4.81223 -1.25691 -0.0 0.0 0.0 -0.0 0.0 0.0 1.42164e-13 -3.72856e-13 -3.34684e-14 34.1179 -44.0804 34.5392 -27.6064 -28.6256 65.0446 -34.2691 -78.0525 -41.6454 -1.73729e-09 4.02761e-10 -1.4101e-10 -2.95712e-09 6.10538e-10 -3.46962e-10 -1.73728e-09 4.02765e-10 -1.41025e-10 7.73091 5.47488 0.417314 -1.73729e-09 4.02764e-10 -1.41013e-10 2.90554 0.965183 0.102902 -1.73728e-09 4.02763e-10 -1.41008e-10 10.2786 0.731801 0.0259123 -1.73729e-09 4.02763e-10 -1.41005e-10 2.22167 -0.733487 -0.20892 1.42051e-13 -3.72906e-13 -3.36199e-14 -64.1721 38.6259 -20.7115 24.4054 -19.8745 -50.9185 0.00191423 1.5006 -0.210963 2.54023e-09 -1.51028e-09 -3.62076e-09 4.39485e-09 -2.6092e-09 -6.26409e-09 2.54023e-09 -1.51029e-09 -3.62076e-09 -7.73091 5.47488 -0.417314 2.54023e-09 -1.51029e-09 -3.62077e-09 -2.90554 0.965183 -0.102902 2.54023e-09 -1.51029e-09 -3.62077e-09 -10.2786 0.731801 -0.0259123 2.54024e-09 -1.51028e-09 -3.62077e-09 -2.22167 -0.733487 0.20892 -2.03217e-16 0.0 -3.88251e-19 -16.5192 -45.729 -16.9331 -0.331993 45.6963 1.60478 0.141048 -4.25992 -16.601 2.03217e-16 0.0 3.88251e-19 18.6637 -53.5756 11.8133 0.408892 47.7036 -1.46288 -3.05567 -8.09674 -9.0903
56.4761 63.4617 55.9846 339.352 -76.4149 -323.013 -2.98327 33.5598 -1.30685 0.808431 -5.52785 -0.861491 -11.4212 -2.16817 -2.15064 16.625 4.49159 -1.79264 -0.0 0.0 0.0 -0.0 0.0 0.0 2.64029e-13 -8.6896e-13 -1.05256e-13 33.6989 -43.8027 33.7961 -27.544 -28.3637 64.6428 -35.3182 -78.2957 -42.7177 -1.02635e-09 5.83807e-10 -5.85941e-10 -1.71769e-09 8.97012e-10 -1.05956e-09 -1.02635e-09 5.8381e-10 -5.85957e-10 7.73091 5.47488 0.417314 -1.02635e-09 5.83809e-10 -5.85944e-10 2.90554 0.965183 0.102902 -1.02634e-09 5.83808e-10 -5.8594e-10 10.2786 0.731801 0.0259123 -1.02635e-09 5.83809e-10 -5.85938e-10 2.22167 -0.733487 -0.20892 2.63911e-13 -8.69015e-13 -1.05406e-13 -64.2548 38.8807 -20.235 24.2509 -19.5735 -50.4133 0.000554034 0.672095 -0.0944611 2.01436e-09 -1.48841e-09 -3.21184e-09 3.48743e-09 -2.57125e-09 -5.55565e-09 2.01436e-09 -1.48841e-09 -3.21183e-09 -7.73091 5.47488 -0.417314 2.01436e-09 -1.48842e-09 -3.21184e-09 -2.90554 0.965183 -0.102902 2.01436e-09 -1.48842e-09 -3.21184e-09 -10.2786 0.731801 -0.0259123 2.01437e-09 -1.48841e-09 -3.21184e-09 -2.22167 -0.733487 0.20892 -2.03217e-16 0.0 -3.88251e-19 -16.0797 -45.0172 -16.6477 -0.340236 46.1021 1.62155 0.170322 -4.05723 -16.9166 2.03217e-16 0.0 3.88251e-19 18.0978 -52.4709 10.8206 0.395644 47.1797 -1.43624 -3.00397 -8.06327 -8.86415
